<svg width="643" height="145" viewBox="0 0 643 145" fill="none" xmlns="http://www.w3.org/2000/svg">
<g filter="url(#filter0_d_314_1278)">
<path d="M24.0897 104V9.5H45.8247V71.06L90.9147 9.5H111.435V104H89.8347V42.575L44.7447 104H24.0897Z" fill="white"/>
<path d="M155.349 104V22.325L160.344 27.32H125.244V9.5H207.189V27.32H172.089L176.949 22.325V104H155.349Z" fill="white"/>
<path d="M205.51 104L247.63 9.5H269.23L311.485 104H288.535L253.975 20.57H262.615L227.92 104H205.51ZM226.57 83.75L232.375 67.145H280.975L286.915 83.75H226.57Z" fill="white"/>
<path d="M325.489 105.485C323.869 105.485 322.159 105.35 320.359 105.08C318.649 104.81 316.759 104.45 314.689 104L316.039 85.505C317.299 85.865 318.604 86.045 319.954 86.045C323.644 86.045 326.524 84.56 328.594 81.59C330.664 78.53 332.149 74.165 333.049 68.495C333.949 62.825 334.534 55.94 334.804 47.84L336.154 9.5H408.784V104H387.184V22.325L392.179 27.32H350.464L354.919 22.055L354.109 47.03C353.839 56.3 353.209 64.535 352.219 71.735C351.229 78.935 349.699 85.055 347.629 90.095C345.559 95.135 342.724 98.96 339.124 101.57C335.524 104.18 330.979 105.485 325.489 105.485Z" fill="white"/>
<path d="M432.386 104V9.5H454.121V71.06L499.211 9.5H519.731V104H498.131V42.575L453.041 104H432.386Z" fill="white"/>
<path d="M597.125 104V74.165L602.525 78.89H576.605C568.415 78.89 561.35 77.54 555.41 74.84C549.47 72.14 544.925 68.225 541.775 63.095C538.625 57.965 537.05 51.845 537.05 44.735C537.05 37.355 538.715 31.055 542.045 25.835C545.465 20.525 550.235 16.475 556.355 13.685C562.475 10.895 569.675 9.5 577.955 9.5H618.725V104H597.125ZM537.32 104L560.81 70.115H582.95L560.405 104H537.32ZM597.125 67.145V21.65L602.525 27.32H578.495C572.285 27.32 567.515 28.76 564.185 31.64C560.945 34.52 559.325 38.795 559.325 44.465C559.325 49.955 560.9 54.185 564.05 57.155C567.2 60.125 571.835 61.61 577.955 61.61H602.525L597.125 67.145Z" fill="white"/>
<path d="M22.0897 104V106H24.0897H44.7447H45.7576L46.357 105.184L87.8347 48.6794V104V106H89.8347H111.435H113.435V104V9.5V7.5H111.435H90.9147H89.9005L89.3012 8.31819L47.8247 64.9448V9.5V7.5H45.8247H24.0897H22.0897V9.5V104ZM153.349 104V106H155.349H176.949H178.949V104V29.32H207.189H209.189V27.32V9.5V7.5H207.189H125.244H123.244V9.5V27.32V29.32H125.244H153.349V104ZM203.683 103.186L202.429 106H205.51H227.92H229.254L229.766 104.768L237.675 85.75H278.81L286.687 104.765L287.198 106H288.535H311.485H314.475C316.493 106.435 318.351 106.788 320.047 107.056L320.055 107.057L320.062 107.058C321.949 107.341 323.758 107.485 325.489 107.485C331.3 107.485 336.283 106.1 340.298 103.189C344.26 100.317 347.3 96.1611 349.479 90.8548C351.63 85.6166 353.194 79.3229 354.2 72.0074C355.202 64.7219 355.836 56.4153 356.108 47.0948C356.108 47.0926 356.108 47.0904 356.108 47.0882L356.684 29.32H385.184V104V106H387.184H408.784H410.784V104V9.5V7.5H408.784H336.154H334.223L334.155 9.42962L332.805 47.7696L332.805 47.7734C332.537 55.8214 331.957 62.6188 331.074 68.1815C330.198 73.6978 328.782 77.7365 326.946 80.4568C325.259 82.8709 323 84.045 319.954 84.045C318.784 84.045 317.664 83.8894 316.588 83.582L314.223 82.9062L314.044 85.3594L312.823 102.093L271.055 8.68361L270.526 7.5H269.23H247.63H246.331L245.803 8.68579L203.683 103.186ZM258.283 36.1957L270.275 65.145H246.244L258.283 36.1957ZM430.386 104V106H432.386H453.041H454.053L454.653 105.184L496.131 48.6794V104V106H498.131H519.731H521.731V104V9.5V7.5H519.731H499.211H498.196L497.597 8.31819L456.121 64.9448V9.5V7.5H454.121H432.386H430.386V9.5V104ZM595.125 104V106H597.125H618.725H620.725V104V9.5V7.5H618.725H577.955C569.453 7.5 561.958 8.93231 555.525 11.8652C549.08 14.8033 544.004 19.0987 540.363 24.752L540.359 24.7594C536.787 30.3579 535.05 37.0479 535.05 44.735C535.05 52.1468 536.694 58.6436 540.07 64.1415C543.345 69.4743 548.019 73.5579 554.019 76.3996L535.676 102.861L533.5 106H537.32H560.405H561.476L562.07 105.108L578.183 80.89H595.125V104ZM578.495 29.32H595.125V59.61H577.955C572.133 59.61 568.071 58.1977 565.422 55.6998C562.774 53.2032 561.325 49.5609 561.325 44.465C561.325 39.186 562.819 35.5354 565.504 33.1432C568.346 30.6913 572.577 29.32 578.495 29.32Z" stroke="#2A335C" stroke-width="4"/>
</g>
<defs>
<filter id="filter0_d_314_1278" x="0.0897217" y="0.5" width="642.635" height="143.985" filterUnits="userSpaceOnUse" color-interpolation-filters="sRGB">
<feFlood flood-opacity="0" result="BackgroundImageFix"/>
<feColorMatrix in="SourceAlpha" type="matrix" values="0 0 0 0 0 0 0 0 0 0 0 0 0 0 0 0 0 0 127 0" result="hardAlpha"/>
<feOffset dy="15"/>
<feGaussianBlur stdDeviation="10"/>
<feColorMatrix type="matrix" values="0 0 0 0 0 0 0 0 0 0 0 0 0 0 0 0 0 0 0.05 0"/>
<feBlend mode="normal" in2="BackgroundImageFix" result="effect1_dropShadow_314_1278"/>
<feBlend mode="normal" in="SourceGraphic" in2="effect1_dropShadow_314_1278" result="shape"/>
</filter>
</defs>
</svg>
